<svg width="1350" height="907" viewBox="0 0 1350 907" fill="none" xmlns="http://www.w3.org/2000/svg">
<mask id="mask0" mask-type="alpha" maskUnits="userSpaceOnUse" x="0" y="0" width="1350" height="907">
<rect width="1350" height="907" fill="#C4C4C4"/>
</mask>
<g mask="url(#mask0)">
<g filter="url(#filter0_di)">
<rect x="96" y="549" width="1347" height="652" rx="31" fill="white"/>
<rect x="91" y="544" width="1357" height="662" rx="36" stroke="white" stroke-width="10"/>
</g>
<ellipse cx="442.263" cy="638.833" rx="19.4797" ry="19.9792" fill="white"/>
<g filter="url(#filter1_i)">
<path d="M442.263 618.854C438.41 618.854 434.644 620.026 431.44 622.221C428.237 624.417 425.74 627.537 424.266 631.188C422.791 634.838 422.406 638.855 423.157 642.731C423.909 646.607 425.764 650.167 428.488 652.961C431.213 655.755 434.684 657.658 438.462 658.429C442.241 659.199 446.158 658.804 449.717 657.292C453.277 655.779 456.319 653.219 458.459 649.933C460.6 646.648 461.742 642.785 461.742 638.833C461.742 633.534 459.69 628.453 456.037 624.706C452.384 620.959 447.429 618.854 442.263 618.854ZM442.263 625.99C443.501 625.99 444.711 626.366 445.741 627.072C446.771 627.777 447.573 628.78 448.047 629.954C448.521 631.127 448.645 632.419 448.404 633.664C448.162 634.91 447.566 636.054 446.69 636.952C445.814 637.85 444.699 638.462 443.484 638.71C442.269 638.958 441.011 638.831 439.866 638.344C438.722 637.858 437.744 637.035 437.056 635.979C436.368 634.923 436.001 633.682 436.001 632.411C435.999 631.568 436.16 630.732 436.474 629.952C436.788 629.172 437.249 628.463 437.831 627.866C438.413 627.27 439.104 626.797 439.864 626.475C440.625 626.152 441.44 625.988 442.263 625.99ZM453.394 651.563C450.342 654.392 446.376 655.958 442.263 655.958C438.149 655.958 434.183 654.392 431.131 651.563V650.735C431.079 648.781 431.78 646.885 433.082 645.458C434.385 644.031 436.184 643.189 438.088 643.115H446.437C448.333 643.193 450.123 644.03 451.424 645.447C452.724 646.863 453.432 648.747 453.394 650.692V651.563Z" fill="#FBFBFB"/>
</g>
<rect x="478.225" y="620.567" width="117.592" height="11.4167" fill="#E0E0E0"/>
<rect x="478.225" y="639.975" width="190.658" height="6.85" fill="#F2F2F2"/>
<rect x="478.225" y="652.533" width="190.658" height="6.85" fill="#F2F2F2"/>
<path d="M96 579C96 562.431 109.431 549 126 549H1413C1429.57 549 1443 562.431 1443 579V596H96V579Z" fill="#F2F2F2"/>
<circle cx="136" cy="574" r="9" fill="#113F59"/>
<circle cx="171" cy="574" r="9" fill="#F4CD0C"/>
<circle cx="207" cy="574" r="9" fill="#05AFAA"/>
<path d="M96 596H372V1201H126C109.431 1201 96 1187.57 96 1171V596Z" fill="#E3E3E3" fill-opacity="0.7"/>
<path d="M1443 596H1251V1201H1413C1429.57 1201 1443 1187.57 1443 1171V596Z" fill="#F8F8F8"/>
<rect x="109" y="611" width="26" height="8" fill="#BDBDBD"/>
<rect x="109" y="653" width="45" height="8" fill="#BDBDBD"/>
<rect x="145" y="679" width="45" height="14" fill="#E0E0E0"/>
<rect x="145" y="702" width="156" height="15" fill="#E0E0E0"/>
<rect x="145" y="726" width="74" height="14" fill="#E0E0E0"/>
<rect x="145" y="750" width="131" height="14" fill="#E0E0E0"/>
<rect x="145" y="774" width="45" height="14" fill="#E0E0E0"/>
<rect x="154" y="611" width="26" height="8" fill="#BDBDBD"/>
<rect x="326" y="611" width="26" height="8" fill="#BDBDBD"/>
<line x1="96" y1="636.5" x2="372" y2="636.5" stroke="url(#paint0_linear)"/>
<line x1="96" y1="806.5" x2="372" y2="806.5" stroke="url(#paint1_linear)"/>
<line x1="1166" y1="698.5" x2="1443" y2="698.5" stroke="url(#paint2_linear)"/>
<rect x="112" y="857" width="243" height="175" fill="#E0E0E0"/>
<g filter="url(#filter2_i)">
<rect x="696.855" y="681.855" width="232.745" height="131.743" fill="#F2F2F2"/>
</g>
<g filter="url(#filter3_i)">
<rect x="420" y="681.855" width="232.745" height="131.743" fill="#F2F2F2"/>
</g>
<g filter="url(#filter4_i)">
<rect x="971" y="681.855" width="232.745" height="131.743" fill="#F2F2F2"/>
</g>
<rect x="962.745" y="857" width="241.255" height="11" fill="#F2F2F2"/>
<rect x="894" y="886" width="310" height="11" fill="#F2F2F2"/>
<g filter="url(#filter5_i)">
<rect x="420" y="857" width="436.145" height="131.743" fill="#F2F2F2"/>
</g>
<g style="mix-blend-mode:luminosity">
<path d="M498.199 892H507.373V995.079H498.199V892Z" fill="white"/>
<path d="M667.012 901.817H676.187V995.079H667.012V901.817Z" fill="white"/>
<path d="M751.419 904.165H760.593V995.079H751.419V904.165Z" fill="white"/>
</g>
<g filter="url(#filter6_di)">
<rect x="684" y="100" width="278.226" height="575" rx="30" fill="url(#paint3_linear)"/>
<rect x="679" y="95" width="288.226" height="585" rx="35" stroke="white" stroke-width="10"/>
</g>
<g filter="url(#filter7_i)">
<rect x="696.752" y="117.389" width="252.722" height="222.581" rx="24" fill="url(#paint4_linear)"/>
</g>
<ellipse cx="719.358" cy="396.774" rx="19.7801" ry="20.2873" fill="white"/>
<g filter="url(#filter8_i)">
<path d="M719.358 376.487C715.446 376.487 711.621 377.677 708.369 379.906C705.116 382.135 702.58 385.303 701.083 389.011C699.586 392.718 699.194 396.797 699.958 400.732C700.721 404.667 702.605 408.282 705.371 411.119C708.137 413.957 711.662 415.889 715.499 416.672C719.336 417.454 723.313 417.053 726.927 415.517C730.542 413.982 733.631 411.381 735.804 408.045C737.978 404.709 739.138 400.787 739.138 396.774C739.138 391.394 737.054 386.233 733.344 382.429C729.635 378.624 724.604 376.487 719.358 376.487ZM719.358 383.732C720.615 383.732 721.844 384.115 722.89 384.831C723.936 385.548 724.75 386.566 725.232 387.758C725.713 388.949 725.839 390.26 725.593 391.525C725.348 392.79 724.743 393.952 723.853 394.864C722.964 395.776 721.831 396.397 720.598 396.649C719.365 396.9 718.086 396.771 716.925 396.278C715.763 395.784 714.77 394.948 714.071 393.876C713.373 392.804 713 391.543 713 390.253C712.998 389.396 713.161 388.548 713.48 387.755C713.799 386.963 714.267 386.244 714.858 385.638C715.449 385.032 716.15 384.552 716.922 384.225C717.695 383.898 718.522 383.73 719.358 383.732ZM730.661 409.7C727.562 412.573 723.534 414.163 719.358 414.163C715.181 414.163 711.153 412.573 708.055 409.7V408.86C708.001 406.875 708.713 404.95 710.036 403.501C711.359 402.052 713.185 401.197 715.119 401.121H723.596C725.521 401.201 727.339 402.051 728.66 403.489C729.981 404.928 730.699 406.84 730.661 408.816V409.7Z" fill="#FBFBFB"/>
</g>
<rect x="755.875" y="378.226" width="119.405" height="11.5927" fill="#E0E0E0"/>
<rect x="755.875" y="397.933" width="193.599" height="6.95565" fill="#F2F2F2"/>
<rect x="755.875" y="410.686" width="193.599" height="6.95565" fill="#F2F2F2"/>
<rect x="697.911" y="441.182" width="57.9637" height="6.95565" fill="#F2F2F2"/>
<rect x="697.911" y="526.968" width="57.9637" height="6.95565" fill="#F2F2F2"/>
<g filter="url(#filter9_i)">
<rect x="762.831" y="456.253" width="56.8044" height="62.6008" fill="#E0E0E0"/>
</g>
<g filter="url(#filter10_i)">
<rect x="762.831" y="542.039" width="56.8044" height="62.6008" fill="#E0E0E0"/>
</g>
<g filter="url(#filter11_i)">
<rect x="697.911" y="456.253" width="56.8044" height="62.6008" fill="#E0E0E0"/>
</g>
<g filter="url(#filter12_i)">
<rect x="697.911" y="542.039" width="56.8044" height="62.6008" fill="#E0E0E0"/>
</g>
<g filter="url(#filter13_i)">
<rect x="827.75" y="456.253" width="56.8044" height="62.6008" fill="#E0E0E0"/>
</g>
<g filter="url(#filter14_i)">
<rect x="827.75" y="542.039" width="56.8044" height="62.6008" fill="#E0E0E0"/>
</g>
<g filter="url(#filter15_i)">
<rect x="892.669" y="456.253" width="56.8044" height="62.6008" fill="#E0E0E0"/>
</g>
<g filter="url(#filter16_i)">
<rect x="892.669" y="542.039" width="56.8044" height="62.6008" fill="#E0E0E0"/>
</g>
<g filter="url(#filter17_i)">
<circle cx="823.113" cy="647.313" r="22.3393" fill="#EAEAEA"/>
</g>
<g filter="url(#filter18_di)">
<rect x="1050" y="344.07" width="157.07" height="232" rx="31" transform="rotate(-90 1050 344.07)" fill="url(#paint5_linear)"/>
<rect x="1045" y="349.07" width="167.07" height="242" rx="36" transform="rotate(-90 1045 349.07)" stroke="white" stroke-width="10"/>
</g>
<mask id="mask1" mask-type="alpha" maskUnits="userSpaceOnUse" x="1050" y="187" width="232" height="158">
<rect x="1050" y="344.07" width="157.07" height="232" rx="31" transform="rotate(-90 1050 344.07)" fill="url(#paint6_linear)"/>
</mask>
<g mask="url(#mask1)">
<path fill-rule="evenodd" clip-rule="evenodd" d="M934.967 320.642L950.369 318.185C965.771 315.728 996.576 310.814 1027.38 293.615C1058.18 276.417 1088.99 246.933 1119.79 246.933C1150.6 246.933 1181.4 276.417 1212.21 288.701C1243.01 300.986 1273.82 296.072 1304.62 305.9C1335.42 315.728 1366.23 340.297 1381.63 352.582L1397.03 364.867H1381.63C1366.23 364.867 1335.42 364.867 1304.62 364.867C1273.82 364.867 1243.01 364.867 1212.21 364.867C1181.4 364.867 1150.6 364.867 1119.79 364.867C1088.99 364.867 1058.18 364.867 1027.38 364.867C996.576 364.867 965.771 364.867 950.369 364.867H934.967V320.642Z" fill="url(#paint7_linear)"/>
<g filter="url(#filter19_di)">
<circle cx="1230.28" cy="232.916" r="23.6833" fill="#E0E0E0"/>
</g>
</g>
<g filter="url(#filter20_di)">
<rect x="1052" y="588.487" width="162.486" height="180" rx="31" transform="rotate(-90 1052 588.487)" fill="url(#paint8_linear)"/>
<rect x="1047" y="593.487" width="172.486" height="190" rx="36" transform="rotate(-90 1047 593.487)" stroke="white" stroke-width="10"/>
</g>
<path d="M1052.97 456C1052.97 439.431 1066.4 426 1082.97 426H1202C1218.57 426 1232 439.431 1232 456V457.135H1052.97V456Z" fill="#F2F2F2"/>
<circle cx="1074.86" cy="442.054" r="5.35135" fill="#113F59"/>
<circle cx="1096.27" cy="442.054" r="5.35135" fill="#F4CD0C"/>
<circle cx="1118.65" cy="442.054" r="5.35135" fill="#05AFAA"/>
<path d="M1084.16 520.12L1118.64 505.56L1121.28 513.48L1094.48 524.2L1121.28 534.92L1118.64 542.84L1084.16 528.28V520.12ZM1131.63 561.8H1121.71L1148.75 484.36H1158.51L1131.63 561.8ZM1196.83 528.28L1162.35 542.84L1159.71 534.92L1186.51 524.2L1159.71 513.48L1162.35 505.56L1196.83 520.12V528.28Z" fill="#BDBDBD"/>
<g filter="url(#filter21_di)">
<path d="M632 1029C626.477 1029 622 1024.52 622 1019V771C622 765.477 626.477 761 632 761H1190C1195.52 761 1200 765.477 1200 771V1019C1200 1024.52 1195.52 1029 1190 1029H632Z" fill="url(#paint9_linear)"/>
<path d="M617 1019C617 1027.28 623.716 1034 632 1034H1190C1198.28 1034 1205 1027.28 1205 1019V771C1205 762.716 1198.28 756 1190 756H632C623.716 756 617 762.716 617 771V1019Z" stroke="white" stroke-width="10"/>
</g>
<g filter="url(#filter22_i)">
<rect x="622" y="798" width="578" height="37" fill="#E0E0E0"/>
</g>
<path d="M622 771C622 765.477 626.477 761 632 761H1190C1195.52 761 1200 765.477 1200 771V798H622V771Z" fill="#F2F2F2"/>
<circle cx="650" cy="780" r="9" fill="#113F59"/>
<circle cx="685" cy="780" r="9" fill="#F4CD0C"/>
<circle cx="721" cy="780" r="9" fill="#05AFAA"/>
<rect x="641" y="814" width="79" height="8" fill="#C4C4C4"/>
<rect x="641" y="854" width="50" height="5" fill="#F2F2F2"/>
<rect x="641" y="884" width="94" height="5" fill="#F2F2F2"/>
<rect x="763" y="854" width="50" height="5" fill="#F2F2F2"/>
<rect x="763" y="884" width="94" height="5" fill="#F2F2F2"/>
<rect x="763" y="814" width="79" height="8" fill="#C4C4C4"/>
<rect x="1091" y="854" width="79" height="5" fill="#F2F2F2"/>
<rect x="1091" y="884" width="66" height="5" fill="#F2F2F2"/>
<rect x="1063" y="814" width="79" height="8" fill="#C4C4C4"/>
<g filter="url(#filter23_di)">
<circle r="56.5" transform="matrix(-1 0 0 1 1354.5 363.5)" fill="#66CF92"/>
<path fill-rule="evenodd" clip-rule="evenodd" d="M1378.45 312.311C1371.18 308.904 1363.06 307 1354.5 307C1323.3 307 1298 332.296 1298 363.5C1298 375.294 1301.61 386.245 1307.79 395.304C1315.64 399.525 1324.62 401.92 1334.16 401.92C1364.95 401.92 1389.91 376.962 1389.91 346.174C1389.91 333.437 1385.64 321.698 1378.45 312.311Z" fill="#6CDB9A"/>
</g>
<g filter="url(#filter24_di)">
<circle cx="1186.5" cy="691.5" r="35.5" fill="url(#paint10_linear)"/>
<circle cx="1186.5" cy="691.5" r="40.5" stroke="white" stroke-width="10"/>
</g>
<mask id="mask2" mask-type="alpha" maskUnits="userSpaceOnUse" x="1151" y="656" width="71" height="71">
<circle cx="1186.5" cy="691.5" r="35.5" fill="white"/>
</mask>
<g mask="url(#mask2)">
<path d="M1208.44 727.302L1186.54 724.468L1183.42 737.77L1206.8 745.377C1208.63 745.974 1210.6 746.124 1212.52 745.811C1214.43 745.498 1216.23 744.733 1217.74 743.588C1219.26 742.443 1220.43 740.956 1221.16 739.266C1221.89 737.577 1222.15 735.741 1221.92 733.932C1220.89 726.075 1219.78 718.253 1219.31 717.236C1218.34 715.118 1214.95 706.187 1194.45 705.379C1173.94 704.572 1164.04 722.231 1164.04 722.231L1206.42 757.749" fill="#05AFAA"/>
<path fill-rule="evenodd" clip-rule="evenodd" d="M1184.95 711.927C1186.16 713.018 1187.71 713.71 1189.38 713.898H1189.38C1190.56 714.029 1191.76 713.902 1192.89 713.525C1194.01 713.149 1195.02 712.534 1195.85 711.728C1196.68 710.923 1197.29 709.949 1197.65 708.882C1198 707.829 1198.1 706.713 1197.92 705.621C1196.82 705.519 1195.66 705.443 1194.45 705.395C1189.98 705.219 1186.02 705.919 1182.55 707.121L1182.68 707.85C1182.94 709.404 1183.74 710.836 1184.95 711.927Z" fill="#113F59"/>
<path d="M1207.02 684.077C1207.02 692.87 1200.36 699.999 1192.15 699.999C1183.93 699.999 1177.27 692.87 1177.27 684.077C1177.27 675.284 1183.93 668.156 1192.15 668.156C1200.36 668.156 1207.02 675.284 1207.02 684.077Z" fill="#24272D"/>
<path fill-rule="evenodd" clip-rule="evenodd" d="M1193.49 667.485C1192.68 668.45 1192.12 669.583 1191.99 670.339L1191.1 670.2C1191.27 669.266 1191.91 668.003 1192.79 666.961C1193.66 665.93 1194.85 664.999 1196.17 664.917L1196.23 665.76C1195.3 665.818 1194.32 666.508 1193.49 667.485Z" fill="#24272D"/>
<path d="M1197.32 682.472C1198.77 673.959 1193.16 666.043 1184.78 664.789C1176.41 663.536 1168.44 669.421 1166.99 677.933C1165.55 686.445 1171.16 694.362 1179.53 695.615C1187.91 696.869 1195.87 690.984 1197.32 682.472Z" fill="#24272D"/>
<path d="M1189.51 712.479C1188.15 712.326 1186.87 711.759 1185.88 710.864C1184.89 709.97 1184.24 708.797 1184.02 707.524L1180.65 687.585C1180.4 686.038 1180.81 684.462 1181.79 683.199C1182.78 681.936 1184.26 681.09 1185.9 680.845C1187.55 680.599 1189.24 680.975 1190.59 681.889C1191.94 682.804 1192.86 684.184 1193.13 685.727L1196.51 705.666C1196.66 706.57 1196.59 707.496 1196.29 708.37C1196 709.243 1195.49 710.042 1194.82 710.702C1194.14 711.362 1193.31 711.866 1192.39 712.174C1191.47 712.483 1190.48 712.587 1189.51 712.479H1189.51Z" fill="#EFC1B8"/>
<path d="M1185.13 702.663L1183.84 702.848C1182.34 703.063 1180.8 702.964 1179.35 702.56C1177.89 702.156 1176.55 701.455 1175.41 700.509C1174.28 699.562 1173.38 698.393 1172.78 697.084C1172.18 695.774 1171.9 694.358 1171.95 692.934L1172.21 685.884C1172.29 683.607 1173.23 681.43 1174.85 679.736C1176.48 678.042 1178.69 676.939 1181.09 676.62C1182.44 676.443 1183.81 676.515 1185.12 676.832C1186.44 677.15 1187.67 677.708 1188.75 678.473C1189.84 679.238 1190.75 680.196 1191.44 681.293C1192.13 682.389 1192.59 683.602 1192.77 684.862L1193.81 691.728C1194.19 694.255 1193.49 696.821 1191.87 698.868C1190.24 700.915 1187.82 702.279 1185.13 702.663Z" fill="#EFC1B8"/>
<path fill-rule="evenodd" clip-rule="evenodd" d="M1176.71 687.091L1177.54 687.407L1175.21 692.855L1177.22 693.117L1177.09 693.954L1173.94 693.543L1176.71 687.091Z" fill="#25282D"/>
<path d="M1180.09 689.995C1180.79 689.995 1181.36 689.465 1181.36 688.81C1181.36 688.155 1180.79 687.625 1180.09 687.625C1179.39 687.625 1178.83 688.155 1178.83 688.81C1178.83 689.465 1179.39 689.995 1180.09 689.995Z" fill="#24272D"/>
<path d="M1174.06 689.321C1174.75 689.321 1175.32 688.79 1175.32 688.136C1175.32 687.481 1174.75 686.95 1174.06 686.95C1173.36 686.95 1172.79 687.481 1172.79 688.136C1172.79 688.79 1173.36 689.321 1174.06 689.321Z" fill="#24272D"/>
<path fill-rule="evenodd" clip-rule="evenodd" d="M1182.26 695.405C1182.26 695.405 1182.26 695.405 1181.91 695.146C1181.55 694.888 1181.55 694.888 1181.55 694.888L1181.55 694.888L1181.55 694.887L1181.55 694.887C1181.55 694.887 1181.55 694.887 1181.55 694.887L1181.55 694.892C1181.54 694.897 1181.53 694.906 1181.52 694.918C1181.5 694.943 1181.46 694.979 1181.42 695.024C1181.32 695.113 1181.18 695.231 1181 695.343C1180.64 695.567 1180.14 695.751 1179.55 695.663L1179.41 696.497C1180.29 696.629 1181.01 696.347 1181.49 696.049C1181.74 695.899 1181.92 695.743 1182.05 695.623C1182.12 695.562 1182.17 695.511 1182.2 695.473C1182.22 695.454 1182.23 695.438 1182.24 695.427C1182.25 695.421 1182.25 695.416 1182.26 695.412L1182.26 695.408L1182.26 695.406L1182.26 695.405L1182.26 695.405Z" fill="#25282D"/>
<path d="M1196.7 690.768C1198.59 689.131 1198.7 686.369 1196.96 684.599C1195.21 682.829 1192.27 682.721 1190.38 684.358L1187.27 687.052C1185.38 688.689 1185.27 691.45 1187.01 693.22C1188.76 694.99 1191.7 695.099 1193.59 693.462L1196.7 690.768Z" fill="#EFC1B8"/>
<path fill-rule="evenodd" clip-rule="evenodd" d="M1191.39 688.976L1194.49 686.373L1195.09 687.002L1192 689.605L1191.39 688.976Z" fill="#25282D"/>
<path d="M1198.01 678.441C1198.01 682.877 1193.16 686.473 1187.19 686.473C1181.21 686.473 1176.36 682.877 1176.36 678.441C1176.36 674.006 1181.21 670.41 1187.19 670.41C1193.16 670.41 1198.01 674.006 1198.01 678.441Z" fill="#24272D"/>
</g>
<rect x="1139.62" y="646.4" width="93.3812" height="90.2612" stroke="#05AFAA"/>
<path d="M1224.92 734.213C1224.92 734.213 1226.88 734.213 1227.63 734.213C1228.39 734.213 1228.99 734.057 1229.59 733.59C1230.2 733.123 1230.35 732.5 1230.35 731.566C1230.35 730.32 1230.35 726.426 1230.35 726.426H1238.04C1238.04 726.426 1238.04 730.631 1238.04 732.344C1238.04 735.926 1236.83 738.107 1235.93 739.197C1235.02 740.287 1233.06 742 1229.14 742C1227.79 742 1225.22 742 1225.22 742V734.213H1224.92Z" fill="#05AFAA"/>
<path d="M1149.11 649.303C1149.11 649.303 1147.13 649.303 1146.37 649.303C1145.61 649.303 1145 649.452 1144.39 649.899C1143.93 650.495 1143.78 651.091 1143.78 651.836C1143.78 653.028 1143.78 656.754 1143.78 656.754H1136C1136 656.754 1136 652.73 1136 651.091C1136 647.663 1137.22 645.577 1138.13 644.534C1139.2 643.639 1141.03 642 1145.15 642C1146.52 642 1149.11 642 1149.11 642V649.303Z" fill="#05AFAA"/>
<path d="M1224.92 649.787C1224.92 649.787 1226.88 649.787 1227.63 649.787C1228.39 649.787 1228.99 649.943 1229.59 650.41C1230.2 650.877 1230.35 651.5 1230.35 652.434C1230.35 653.68 1230.35 657.574 1230.35 657.574H1238.04C1238.04 657.574 1238.04 653.369 1238.04 651.656C1238.04 648.074 1236.83 645.893 1235.93 644.803C1235.02 643.713 1233.06 642 1229.14 642C1227.79 642 1225.22 642 1225.22 642V649.787H1224.92Z" fill="#05AFAA"/>
<path d="M1149.11 734.697C1149.11 734.697 1147.13 734.697 1146.37 734.697C1145.61 734.697 1145 734.548 1144.39 734.101C1143.93 733.505 1143.78 732.909 1143.78 732.164C1143.78 730.972 1143.78 727.246 1143.78 727.246H1136C1136 727.246 1136 731.27 1136 732.909C1136 736.337 1137.22 738.423 1138.13 739.466C1139.2 740.361 1141.03 742 1145.15 742C1146.52 742 1149.11 742 1149.11 742V734.697Z" fill="#05AFAA"/>
<g filter="url(#filter25_di)">
<circle cx="497" cy="532" r="49" fill="url(#paint11_linear)"/>
<circle cx="497" cy="532" r="54" stroke="white" stroke-width="10"/>
</g>
<mask id="mask3" mask-type="alpha" maskUnits="userSpaceOnUse" x="448" y="483" width="98" height="98">
<circle cx="497" cy="532" r="49" fill="white"/>
</mask>
<g mask="url(#mask3)">
<path d="M524.56 525.678C520.915 522.383 519.542 517.35 518.767 512.728C517.637 509.354 513.488 510.062 510.675 510.062C508.049 510.062 505.498 510.504 502.897 510.802C499.72 511.167 496.323 511.089 493.381 512.497C486.401 515.839 485.909 525.285 482.889 531.454C481.275 534.751 478.189 537.234 475.31 539.418C473.505 540.787 472.659 542.621 471.884 544.733C470.994 547.16 470.808 549.44 470.808 551.99C470.808 554.849 470.355 555.945 467.995 557.733C463.711 560.979 460.565 566.599 465.546 570.749C470.405 574.799 477.248 573.899 482.889 571.967C486.225 570.825 489.105 569.914 492.09 572.23C495.758 575.076 499.657 576.696 504.353 576.953C512.488 577.398 519.958 574.557 527.936 573.432C535.072 572.425 546.78 572.643 549.615 564.266C550.909 560.442 548.734 557.927 546.173 555.38C544.162 553.381 538.897 550.815 539.354 547.514C539.83 544.088 543.103 542.814 541.059 539.089C539.051 535.428 534.81 531.83 531.146 529.907C528.825 528.689 526.519 527.449 524.56 525.678Z" fill="#24272D"/>
<path d="M477 503C480.122 501.397 482.316 500.234 485.888 501.5C486.915 501.234 485.888 502.54 485.888 503.591C485.888 506.071 486.141 508.53 486.09 511.003C486.041 513.365 484.967 515.812 483.844 517.853C483.157 519.101 482.111 521.175 480.901 521.997C479.183 523.166 477.66 523.923 475.679 522.985C473.755 522.074 472.372 521.822 471.131 519.852C469.822 517.773 469.76 514.293 470.435 511.98C471.106 509.68 474.673 504.195 477 503Z" fill="#24272D"/>
<path d="M522.247 577.859L494.2 573.988L490.203 592.157L520.14 602.546C522.492 603.363 525.013 603.567 527.465 603.14C529.918 602.712 532.221 601.667 534.158 600.103C536.095 598.539 537.602 596.508 538.536 594.201C539.471 591.893 539.803 589.386 539.5 586.915C538.184 576.183 536.762 565.5 536.168 564.11C534.929 561.218 530.584 549.019 504.329 547.916C478.073 546.813 465.392 570.932 465.392 570.932L519.661 619.446" fill="#6CDB9A"/>
<circle cx="497" cy="517" r="22" fill="#24272D"/>
<path d="M498.01 557.592C496.261 557.382 494.629 556.608 493.36 555.386C492.092 554.165 491.256 552.563 490.98 550.824L486.655 523.59C486.335 521.477 486.863 519.324 488.124 517.599C489.385 515.874 491.277 514.718 493.387 514.383C495.497 514.048 497.654 514.561 499.388 515.811C501.121 517.06 502.29 518.944 502.64 521.052L506.964 548.286C507.159 549.521 507.065 550.785 506.69 551.979C506.315 553.172 505.668 554.263 504.8 555.164C503.933 556.066 502.869 556.754 501.691 557.175C500.513 557.597 499.253 557.739 498.011 557.592H498.01Z" fill="#EFC1B8"/>
<path d="M492.396 544.185L490.743 544.437C488.82 544.73 486.856 544.596 484.991 544.043C483.126 543.491 481.405 542.535 479.951 541.242C478.498 539.949 477.347 538.352 476.581 536.564C475.815 534.776 475.453 532.841 475.519 530.896L475.85 521.267C475.957 518.156 477.156 515.183 479.237 512.869C481.318 510.556 484.147 509.049 487.229 508.614C488.95 508.371 490.702 508.469 492.385 508.903C494.069 509.338 495.65 510.099 497.039 511.144C498.428 512.19 499.597 513.498 500.48 514.995C501.364 516.493 501.943 518.149 502.186 519.87L503.51 529.249C503.997 532.7 503.103 536.204 501.023 539.001C498.942 541.797 495.842 543.66 492.396 544.185Z" fill="#EFC1B8"/>
<path fill-rule="evenodd" clip-rule="evenodd" d="M481.61 522.916L482.681 523.347L479.691 530.788L482.265 531.146L482.106 532.289L478.069 531.729L481.61 522.916Z" fill="#25282D"/>
<path d="M485.945 526.882C486.839 526.882 487.564 526.157 487.564 525.263C487.564 524.369 486.839 523.644 485.945 523.644C485.051 523.644 484.326 524.369 484.326 525.263C484.326 526.157 485.051 526.882 485.945 526.882Z" fill="#24272D"/>
<path d="M478.217 525.961C479.111 525.961 479.836 525.236 479.836 524.342C479.836 523.448 479.111 522.723 478.217 522.723C477.322 522.723 476.598 523.448 476.598 524.342C476.598 525.236 477.322 525.961 478.217 525.961Z" fill="#24272D"/>
<path fill-rule="evenodd" clip-rule="evenodd" d="M488.725 534.271C488.725 534.27 488.725 534.27 488.268 533.917C487.811 533.565 487.811 533.565 487.811 533.564L487.811 533.564L487.812 533.564L487.812 533.563C487.813 533.563 487.812 533.563 487.812 533.563L487.807 533.57C487.801 533.577 487.791 533.589 487.776 533.606C487.747 533.639 487.702 533.689 487.641 533.75C487.518 533.873 487.337 534.034 487.106 534.186C486.643 534.492 486.012 534.744 485.253 534.623L485.072 535.763C486.203 535.943 487.124 535.557 487.742 535.15C488.051 534.946 488.292 534.732 488.456 534.568C488.539 534.486 488.603 534.415 488.648 534.363C488.67 534.337 488.688 534.316 488.701 534.3C488.707 534.292 488.713 534.286 488.717 534.281L488.722 534.274L488.724 534.272L488.724 534.271L488.725 534.271Z" fill="#25282D"/>
<path d="M479.06 506.237C480.366 504.005 483.492 502.94 485.723 501.618C485.935 501.611 486.145 501.664 486.354 501.692C487.529 501.854 488.702 501.988 489.869 502.206C493.797 502.938 498.172 504.052 501.461 506.427C503.726 508.062 505.544 510.173 506.323 512.89C506.633 513.972 506.919 515.339 506.386 516.407C505.981 517.219 505.127 517.83 504.457 518.407C503.669 519.086 502.864 519.735 501.981 520.287C499.296 521.967 496.416 522.077 493.307 522.002C491.037 521.947 488.8 521.705 486.66 520.912C484.78 520.215 483 519.252 481.314 518.174C479.552 517.047 477.858 515.495 477.434 513.341C476.964 510.945 477.868 508.273 479.06 506.237Z" fill="#24272D"/>
<path d="M507.697 525.995C509.326 523.133 508.328 519.493 505.466 517.863C502.605 516.234 498.964 517.232 497.335 520.094L494.652 524.804C493.023 527.666 494.022 531.306 496.883 532.936C499.744 534.565 503.385 533.566 505.014 530.705L507.697 525.995Z" fill="#EFC1B8"/>
<path fill-rule="evenodd" clip-rule="evenodd" d="M499.368 527.815L503.176 521.136L504.179 521.708L500.371 528.387L499.368 527.815Z" fill="#25282D"/>
</g>
<rect x="437.5" y="473.5" width="119" height="118" stroke="#6CDB9A"/>
<path d="M546 586.22C546 586.22 548.512 586.22 549.479 586.22C550.445 586.22 551.218 586.021 551.991 585.422C552.764 584.823 552.957 584.024 552.957 582.826C552.957 581.229 552.957 576.237 552.957 576.237H562.814C562.814 576.237 562.814 581.628 562.814 583.824C562.814 588.417 561.267 591.212 560.108 592.61C558.948 594.007 556.436 596.203 551.411 596.203C549.672 596.203 546.387 596.203 546.387 596.203V586.22H546Z" fill="#6CDB9A"/>
<path d="M448.814 477.362C448.814 477.362 446.272 477.362 445.294 477.362C444.317 477.362 443.535 477.553 442.753 478.126C442.166 478.891 441.971 479.655 441.971 480.61C441.971 482.139 441.971 486.915 441.971 486.915H432C432 486.915 432 481.757 432 479.655C432 475.26 433.564 472.586 434.737 471.248C436.106 470.102 438.452 468 443.73 468C445.49 468 448.814 468 448.814 468V477.362Z" fill="#6CDB9A"/>
<path d="M546 477.983C546 477.983 548.512 477.983 549.479 477.983C550.445 477.983 551.218 478.183 551.991 478.782C552.764 479.381 552.957 480.179 552.957 481.377C552.957 482.975 552.957 487.966 552.957 487.966H562.814C562.814 487.966 562.814 482.575 562.814 480.379C562.814 475.787 561.267 472.991 560.108 471.594C558.948 470.196 556.436 468 551.411 468C549.672 468 546.387 468 546.387 468V477.983H546Z" fill="#6CDB9A"/>
<path d="M448.814 586.841C448.814 586.841 446.272 586.841 445.294 586.841C444.317 586.841 443.535 586.65 442.753 586.077C442.166 585.313 441.971 584.549 441.971 583.593C441.971 582.065 441.971 577.288 441.971 577.288H432C432 577.288 432 582.447 432 584.549C432 588.943 433.564 591.618 434.737 592.955C436.106 594.102 438.452 596.203 443.73 596.203C445.49 596.203 448.814 596.203 448.814 596.203V586.841Z" fill="#6CDB9A"/>
</g>
<g filter="url(#filter26_d)">
<ellipse cx="825" cy="217.5" rx="22" ry="22.5" fill="white"/>
<path d="M824.887 193.72C820.23 193.72 815.677 195.128 811.805 197.765C807.932 200.402 804.914 204.151 803.132 208.536C801.35 212.922 800.883 217.747 801.792 222.403C802.701 227.059 804.943 231.335 808.236 234.692C811.53 238.048 815.725 240.334 820.293 241.26C824.861 242.186 829.596 241.711 833.899 239.894C838.201 238.078 841.879 235.002 844.466 231.055C847.054 227.108 848.435 222.468 848.435 217.721C848.435 211.355 845.954 205.251 841.538 200.75C837.122 196.249 831.132 193.72 824.887 193.72ZM837.468 219.229L818.967 229.515C818.711 229.666 818.421 229.745 818.126 229.745C817.83 229.745 817.54 229.666 817.285 229.515C817.032 229.359 816.824 229.137 816.682 228.872C816.54 228.607 816.47 228.308 816.477 228.007V207.435C816.477 207.137 816.553 206.845 816.698 206.586C816.842 206.328 817.05 206.112 817.301 205.961C817.557 205.81 817.847 205.731 818.142 205.731C818.438 205.731 818.728 205.81 818.983 205.961L837.485 216.246C837.752 216.393 837.975 216.611 838.131 216.877C838.286 217.142 838.368 217.446 838.368 217.755C838.368 218.064 838.286 218.368 838.131 218.633C837.975 218.899 837.752 219.117 837.485 219.264L837.468 219.229Z" fill="#113F59"/>
</g>
<path d="M770.432 272.672C770.603 273.248 770.784 273.851 770.976 274.48C771.168 275.099 771.365 275.723 771.568 276.352C771.781 276.971 771.989 277.584 772.192 278.192C772.405 278.789 772.608 279.355 772.8 279.888C772.96 279.312 773.115 278.688 773.264 278.016C773.413 277.333 773.563 276.629 773.712 275.904C773.861 275.168 774.005 274.421 774.144 273.664C774.293 272.907 774.432 272.16 774.56 271.424H776.64C776.267 273.429 775.851 275.36 775.392 277.216C774.933 279.061 774.421 280.827 773.856 282.512H771.936C771.104 280.357 770.299 278.005 769.52 275.456C769.125 276.747 768.725 277.973 768.32 279.136C767.915 280.299 767.509 281.424 767.104 282.512H765.184C764.608 280.827 764.091 279.061 763.632 277.216C763.184 275.36 762.773 273.429 762.4 271.424H764.56C764.688 272.149 764.821 272.891 764.96 273.648C765.109 274.405 765.259 275.152 765.408 275.888C765.568 276.613 765.728 277.317 765.888 278C766.048 278.683 766.208 279.312 766.368 279.888C766.571 279.344 766.773 278.773 766.976 278.176C767.189 277.568 767.397 276.955 767.6 276.336C767.803 275.707 767.995 275.083 768.176 274.464C768.368 273.845 768.544 273.248 768.704 272.672H770.432ZM780.77 281.152C781.367 281.152 781.82 281.12 782.13 281.056V278.912C782.023 278.88 781.868 278.848 781.666 278.816C781.463 278.784 781.239 278.768 780.994 278.768C780.78 278.768 780.562 278.784 780.338 278.816C780.124 278.848 779.927 278.907 779.746 278.992C779.575 279.077 779.436 279.2 779.33 279.36C779.223 279.509 779.17 279.701 779.17 279.936C779.17 280.395 779.314 280.715 779.602 280.896C779.89 281.067 780.279 281.152 780.77 281.152ZM780.61 273.936C781.25 273.936 781.788 274.016 782.226 274.176C782.663 274.336 783.01 274.56 783.266 274.848C783.532 275.136 783.719 275.488 783.826 275.904C783.943 276.309 784.002 276.757 784.002 277.248V282.32C783.703 282.384 783.25 282.459 782.642 282.544C782.044 282.64 781.367 282.688 780.61 282.688C780.108 282.688 779.65 282.64 779.234 282.544C778.818 282.448 778.46 282.293 778.162 282.08C777.874 281.867 777.644 281.589 777.474 281.248C777.314 280.907 777.234 280.485 777.234 279.984C777.234 279.504 777.324 279.099 777.506 278.768C777.698 278.437 777.954 278.171 778.274 277.968C778.594 277.755 778.962 277.605 779.378 277.52C779.804 277.424 780.247 277.376 780.706 277.376C780.919 277.376 781.143 277.392 781.378 277.424C781.612 277.445 781.863 277.488 782.13 277.552V277.232C782.13 277.008 782.103 276.795 782.05 276.592C781.996 276.389 781.9 276.213 781.762 276.064C781.634 275.904 781.458 275.781 781.234 275.696C781.02 275.611 780.748 275.568 780.418 275.568C779.97 275.568 779.559 275.6 779.186 275.664C778.812 275.728 778.508 275.803 778.274 275.888L778.034 274.32C778.279 274.235 778.636 274.149 779.106 274.064C779.575 273.979 780.076 273.936 780.61 273.936ZM786.277 271.936L788.213 271.616V274.144H791.189V275.76H788.213V279.168C788.213 279.84 788.319 280.32 788.533 280.608C788.746 280.896 789.109 281.04 789.621 281.04C789.973 281.04 790.282 281.003 790.549 280.928C790.826 280.853 791.045 280.784 791.205 280.72L791.525 282.256C791.301 282.352 791.007 282.448 790.645 282.544C790.282 282.651 789.855 282.704 789.365 282.704C788.767 282.704 788.266 282.624 787.861 282.464C787.466 282.304 787.151 282.075 786.917 281.776C786.682 281.467 786.517 281.099 786.421 280.672C786.325 280.235 786.277 279.739 786.277 279.184V271.936ZM792.424 278.336C792.424 277.717 792.52 277.141 792.712 276.608C792.904 276.064 793.176 275.595 793.528 275.2C793.891 274.805 794.328 274.496 794.84 274.272C795.352 274.048 795.928 273.936 796.568 273.936C797.358 273.936 798.104 274.08 798.808 274.368L798.392 275.952C798.168 275.856 797.912 275.776 797.624 275.712C797.347 275.648 797.048 275.616 796.728 275.616C795.971 275.616 795.395 275.856 795 276.336C794.606 276.805 794.408 277.472 794.408 278.336C794.408 279.168 794.595 279.829 794.968 280.32C795.342 280.8 795.971 281.04 796.856 281.04C797.187 281.04 797.512 281.008 797.832 280.944C798.152 280.88 798.43 280.8 798.664 280.704L798.936 282.304C798.723 282.411 798.398 282.507 797.96 282.592C797.534 282.677 797.091 282.72 796.632 282.72C795.918 282.72 795.294 282.613 794.76 282.4C794.238 282.176 793.8 281.872 793.448 281.488C793.107 281.093 792.851 280.629 792.68 280.096C792.51 279.552 792.424 278.965 792.424 278.336ZM800.435 282.512V270.416L802.371 270.096V274.24C802.584 274.165 802.83 274.101 803.107 274.048C803.395 273.995 803.678 273.968 803.955 273.968C804.627 273.968 805.182 274.064 805.619 274.256C806.067 274.437 806.424 274.699 806.691 275.04C806.958 275.371 807.144 275.771 807.251 276.24C807.368 276.709 807.427 277.232 807.427 277.808V282.512H805.491V278.112C805.491 277.664 805.459 277.285 805.395 276.976C805.342 276.656 805.246 276.4 805.107 276.208C804.979 276.005 804.803 275.861 804.579 275.776C804.355 275.68 804.078 275.632 803.747 275.632C803.491 275.632 803.23 275.659 802.963 275.712C802.696 275.765 802.499 275.813 802.371 275.856V282.512H800.435ZM821.05 278.32C821.05 278.981 820.954 279.584 820.762 280.128C820.57 280.672 820.298 281.136 819.946 281.52C819.594 281.904 819.167 282.203 818.666 282.416C818.175 282.629 817.631 282.736 817.034 282.736C816.437 282.736 815.893 282.629 815.402 282.416C814.911 282.203 814.49 281.904 814.138 281.52C813.786 281.136 813.509 280.672 813.306 280.128C813.114 279.584 813.018 278.981 813.018 278.32C813.018 277.659 813.114 277.061 813.306 276.528C813.509 275.984 813.786 275.52 814.138 275.136C814.501 274.752 814.927 274.459 815.418 274.256C815.909 274.043 816.447 273.936 817.034 273.936C817.621 273.936 818.159 274.043 818.65 274.256C819.151 274.459 819.578 274.752 819.93 275.136C820.282 275.52 820.554 275.984 820.746 276.528C820.949 277.061 821.05 277.659 821.05 278.32ZM819.066 278.32C819.066 277.488 818.885 276.832 818.522 276.352C818.17 275.861 817.674 275.616 817.034 275.616C816.394 275.616 815.893 275.861 815.53 276.352C815.178 276.832 815.002 277.488 815.002 278.32C815.002 279.163 815.178 279.829 815.53 280.32C815.893 280.811 816.394 281.056 817.034 281.056C817.674 281.056 818.17 280.811 818.522 280.32C818.885 279.829 819.066 279.163 819.066 278.32ZM829.909 282.256C829.535 282.352 829.05 282.448 828.453 282.544C827.855 282.651 827.199 282.704 826.485 282.704C825.813 282.704 825.247 282.608 824.789 282.416C824.341 282.224 823.978 281.957 823.701 281.616C823.434 281.275 823.242 280.869 823.125 280.4C823.007 279.92 822.949 279.397 822.949 278.832V274.144H824.885V278.528C824.885 279.424 825.013 280.064 825.269 280.448C825.535 280.832 825.994 281.024 826.645 281.024C826.879 281.024 827.125 281.013 827.381 280.992C827.647 280.971 827.845 280.944 827.973 280.912V274.144H829.909V282.256ZM837.141 275.888C836.981 275.835 836.757 275.781 836.469 275.728C836.191 275.664 835.866 275.632 835.493 275.632C835.279 275.632 835.05 275.653 834.805 275.696C834.57 275.739 834.405 275.776 834.309 275.808V282.512H832.373V274.544C832.746 274.405 833.21 274.277 833.765 274.16C834.33 274.032 834.954 273.968 835.637 273.968C835.765 273.968 835.914 273.979 836.085 274C836.255 274.011 836.426 274.032 836.597 274.064C836.767 274.085 836.933 274.117 837.093 274.16C837.253 274.192 837.381 274.224 837.477 274.256L837.141 275.888ZM844.704 282.512C844.171 281.413 843.621 280.155 843.056 278.736C842.501 277.307 841.995 275.776 841.536 274.144H843.6C843.717 274.613 843.851 275.12 844 275.664C844.16 276.197 844.325 276.736 844.496 277.28C844.677 277.813 844.859 278.336 845.04 278.848C845.232 279.349 845.408 279.803 845.568 280.208C845.728 279.803 845.899 279.349 846.08 278.848C846.261 278.336 846.437 277.813 846.608 277.28C846.789 276.736 846.96 276.197 847.12 275.664C847.28 275.12 847.419 274.613 847.536 274.144H849.536C849.077 275.776 848.565 277.307 848 278.736C847.445 280.155 846.901 281.413 846.368 282.512H844.704ZM852.934 282.512H850.998V274.144H852.934V282.512ZM853.142 271.696C853.142 272.059 853.025 272.347 852.79 272.56C852.555 272.773 852.278 272.88 851.958 272.88C851.627 272.88 851.345 272.773 851.11 272.56C850.875 272.347 850.758 272.059 850.758 271.696C850.758 271.323 850.875 271.029 851.11 270.816C851.345 270.603 851.627 270.496 851.958 270.496C852.278 270.496 852.555 270.603 852.79 270.816C853.025 271.029 853.142 271.323 853.142 271.696ZM856.924 278.304C856.924 279.157 857.127 279.829 857.532 280.32C857.937 280.8 858.497 281.04 859.212 281.04C859.521 281.04 859.783 281.029 859.996 281.008C860.22 280.976 860.401 280.944 860.54 280.912V276.112C860.369 275.995 860.14 275.888 859.852 275.792C859.575 275.685 859.276 275.632 858.956 275.632C858.252 275.632 857.735 275.872 857.404 276.352C857.084 276.832 856.924 277.483 856.924 278.304ZM862.476 282.256C862.092 282.373 861.607 282.48 861.02 282.576C860.444 282.672 859.836 282.72 859.196 282.72C858.535 282.72 857.943 282.619 857.42 282.416C856.897 282.213 856.449 281.925 856.076 281.552C855.713 281.168 855.431 280.709 855.228 280.176C855.036 279.632 854.94 279.024 854.94 278.352C854.94 277.691 855.02 277.093 855.18 276.56C855.351 276.016 855.596 275.552 855.916 275.168C856.236 274.784 856.625 274.491 857.084 274.288C857.543 274.075 858.071 273.968 858.668 273.968C859.073 273.968 859.431 274.016 859.74 274.112C860.049 274.208 860.316 274.315 860.54 274.432V270.416L862.476 270.096V282.256ZM864.471 278.368C864.471 277.632 864.578 276.987 864.791 276.432C865.015 275.877 865.308 275.419 865.671 275.056C866.034 274.683 866.45 274.405 866.919 274.224C867.388 274.032 867.868 273.936 868.359 273.936C869.511 273.936 870.407 274.293 871.047 275.008C871.698 275.723 872.023 276.789 872.023 278.208C872.023 278.315 872.018 278.437 872.007 278.576C872.007 278.704 872.002 278.821 871.991 278.928H866.471C866.524 279.6 866.759 280.123 867.175 280.496C867.602 280.859 868.215 281.04 869.015 281.04C869.484 281.04 869.911 280.997 870.295 280.912C870.69 280.827 870.999 280.736 871.223 280.64L871.479 282.224C871.372 282.277 871.223 282.336 871.031 282.4C870.85 282.453 870.636 282.501 870.391 282.544C870.156 282.597 869.9 282.64 869.623 282.672C869.346 282.704 869.063 282.72 868.775 282.72C868.039 282.72 867.399 282.613 866.855 282.4C866.311 282.176 865.863 281.872 865.511 281.488C865.159 281.093 864.898 280.635 864.727 280.112C864.556 279.579 864.471 278.997 864.471 278.368ZM870.087 277.504C870.087 277.237 870.05 276.987 869.975 276.752C869.9 276.507 869.788 276.299 869.639 276.128C869.5 275.947 869.324 275.808 869.111 275.712C868.908 275.605 868.663 275.552 868.375 275.552C868.076 275.552 867.815 275.611 867.591 275.728C867.367 275.835 867.175 275.979 867.015 276.16C866.866 276.341 866.748 276.549 866.663 276.784C866.578 277.019 866.519 277.259 866.487 277.504H870.087ZM881.644 278.32C881.644 278.981 881.548 279.584 881.356 280.128C881.164 280.672 880.892 281.136 880.54 281.52C880.188 281.904 879.761 282.203 879.26 282.416C878.769 282.629 878.225 282.736 877.628 282.736C877.03 282.736 876.486 282.629 875.996 282.416C875.505 282.203 875.084 281.904 874.732 281.52C874.38 281.136 874.102 280.672 873.9 280.128C873.708 279.584 873.612 278.981 873.612 278.32C873.612 277.659 873.708 277.061 873.9 276.528C874.102 275.984 874.38 275.52 874.732 275.136C875.094 274.752 875.521 274.459 876.012 274.256C876.502 274.043 877.041 273.936 877.628 273.936C878.214 273.936 878.753 274.043 879.244 274.256C879.745 274.459 880.172 274.752 880.524 275.136C880.876 275.52 881.148 275.984 881.34 276.528C881.542 277.061 881.644 277.659 881.644 278.32ZM879.66 278.32C879.66 277.488 879.478 276.832 879.116 276.352C878.764 275.861 878.268 275.616 877.628 275.616C876.988 275.616 876.486 275.861 876.124 276.352C875.772 276.832 875.596 277.488 875.596 278.32C875.596 279.163 875.772 279.829 876.124 280.32C876.486 280.811 876.988 281.056 877.628 281.056C878.268 281.056 878.764 280.811 879.116 280.32C879.478 279.829 879.66 279.163 879.66 278.32ZM885.894 274.4C885.894 275.285 885.862 276.096 885.798 276.832C885.734 277.568 885.654 278.309 885.558 279.056H884.182C884.076 278.309 883.99 277.568 883.926 276.832C883.862 276.085 883.83 275.275 883.83 274.4V271.424H885.894V274.4ZM886.134 281.456C886.134 281.829 886.012 282.133 885.766 282.368C885.521 282.603 885.217 282.72 884.854 282.72C884.502 282.72 884.198 282.603 883.942 282.368C883.697 282.133 883.574 281.829 883.574 281.456C883.574 281.083 883.697 280.779 883.942 280.544C884.198 280.299 884.502 280.176 884.854 280.176C885.217 280.176 885.521 280.299 885.766 280.544C886.012 280.779 886.134 281.083 886.134 281.456Z" fill="#05AFAA"/>
<defs>
<filter id="filter0_di" x="66" y="519" width="1447" height="752" filterUnits="userSpaceOnUse" color-interpolation-filters="sRGB">
<feFlood flood-opacity="0" result="BackgroundImageFix"/>
<feColorMatrix in="SourceAlpha" type="matrix" values="0 0 0 0 0 0 0 0 0 0 0 0 0 0 0 0 0 0 127 0"/>
<feOffset dx="20" dy="20"/>
<feGaussianBlur stdDeviation="20"/>
<feColorMatrix type="matrix" values="0 0 0 0 0 0 0 0 0 0 0 0 0 0 0 0 0 0 0.1 0"/>
<feBlend mode="normal" in2="BackgroundImageFix" result="effect1_dropShadow"/>
<feBlend mode="normal" in="SourceGraphic" in2="effect1_dropShadow" result="shape"/>
<feColorMatrix in="SourceAlpha" type="matrix" values="0 0 0 0 0 0 0 0 0 0 0 0 0 0 0 0 0 0 127 0" result="hardAlpha"/>
<feOffset dy="4"/>
<feGaussianBlur stdDeviation="10"/>
<feComposite in2="hardAlpha" operator="arithmetic" k2="-1" k3="1"/>
<feColorMatrix type="matrix" values="0 0 0 0 0.75 0 0 0 0 0.75 0 0 0 0 0.75 0 0 0 0.25 0"/>
<feBlend mode="normal" in2="shape" result="effect2_innerShadow"/>
</filter>
<filter id="filter1_i" x="422.783" y="618.854" width="41.9594" height="43.9583" filterUnits="userSpaceOnUse" color-interpolation-filters="sRGB">
<feFlood flood-opacity="0" result="BackgroundImageFix"/>
<feBlend mode="normal" in="SourceGraphic" in2="BackgroundImageFix" result="shape"/>
<feColorMatrix in="SourceAlpha" type="matrix" values="0 0 0 0 0 0 0 0 0 0 0 0 0 0 0 0 0 0 127 0" result="hardAlpha"/>
<feOffset dx="3" dy="4"/>
<feGaussianBlur stdDeviation="7"/>
<feComposite in2="hardAlpha" operator="arithmetic" k2="-1" k3="1"/>
<feColorMatrix type="matrix" values="0 0 0 0 0.895833 0 0 0 0 0.895833 0 0 0 0 0.895833 0 0 0 0.5 0"/>
<feBlend mode="normal" in2="shape" result="effect1_innerShadow"/>
</filter>
<filter id="filter2_i" x="696.855" y="681.855" width="235.745" height="135.743" filterUnits="userSpaceOnUse" color-interpolation-filters="sRGB">
<feFlood flood-opacity="0" result="BackgroundImageFix"/>
<feBlend mode="normal" in="SourceGraphic" in2="BackgroundImageFix" result="shape"/>
<feColorMatrix in="SourceAlpha" type="matrix" values="0 0 0 0 0 0 0 0 0 0 0 0 0 0 0 0 0 0 127 0" result="hardAlpha"/>
<feOffset dx="3" dy="4"/>
<feGaussianBlur stdDeviation="7"/>
<feComposite in2="hardAlpha" operator="arithmetic" k2="-1" k3="1"/>
<feColorMatrix type="matrix" values="0 0 0 0 0.895833 0 0 0 0 0.895833 0 0 0 0 0.895833 0 0 0 0.5 0"/>
<feBlend mode="normal" in2="shape" result="effect1_innerShadow"/>
</filter>
<filter id="filter3_i" x="420" y="681.855" width="235.745" height="135.743" filterUnits="userSpaceOnUse" color-interpolation-filters="sRGB">
<feFlood flood-opacity="0" result="BackgroundImageFix"/>
<feBlend mode="normal" in="SourceGraphic" in2="BackgroundImageFix" result="shape"/>
<feColorMatrix in="SourceAlpha" type="matrix" values="0 0 0 0 0 0 0 0 0 0 0 0 0 0 0 0 0 0 127 0" result="hardAlpha"/>
<feOffset dx="3" dy="4"/>
<feGaussianBlur stdDeviation="7"/>
<feComposite in2="hardAlpha" operator="arithmetic" k2="-1" k3="1"/>
<feColorMatrix type="matrix" values="0 0 0 0 0.895833 0 0 0 0 0.895833 0 0 0 0 0.895833 0 0 0 0.5 0"/>
<feBlend mode="normal" in2="shape" result="effect1_innerShadow"/>
</filter>
<filter id="filter4_i" x="971" y="681.855" width="235.745" height="135.743" filterUnits="userSpaceOnUse" color-interpolation-filters="sRGB">
<feFlood flood-opacity="0" result="BackgroundImageFix"/>
<feBlend mode="normal" in="SourceGraphic" in2="BackgroundImageFix" result="shape"/>
<feColorMatrix in="SourceAlpha" type="matrix" values="0 0 0 0 0 0 0 0 0 0 0 0 0 0 0 0 0 0 127 0" result="hardAlpha"/>
<feOffset dx="3" dy="4"/>
<feGaussianBlur stdDeviation="7"/>
<feComposite in2="hardAlpha" operator="arithmetic" k2="-1" k3="1"/>
<feColorMatrix type="matrix" values="0 0 0 0 0.895833 0 0 0 0 0.895833 0 0 0 0 0.895833 0 0 0 0.5 0"/>
<feBlend mode="normal" in2="shape" result="effect1_innerShadow"/>
</filter>
<filter id="filter5_i" x="420" y="857" width="439.145" height="135.743" filterUnits="userSpaceOnUse" color-interpolation-filters="sRGB">
<feFlood flood-opacity="0" result="BackgroundImageFix"/>
<feBlend mode="normal" in="SourceGraphic" in2="BackgroundImageFix" result="shape"/>
<feColorMatrix in="SourceAlpha" type="matrix" values="0 0 0 0 0 0 0 0 0 0 0 0 0 0 0 0 0 0 127 0" result="hardAlpha"/>
<feOffset dx="3" dy="4"/>
<feGaussianBlur stdDeviation="7"/>
<feComposite in2="hardAlpha" operator="arithmetic" k2="-1" k3="1"/>
<feColorMatrix type="matrix" values="0 0 0 0 0.895833 0 0 0 0 0.895833 0 0 0 0 0.895833 0 0 0 0.5 0"/>
<feBlend mode="normal" in2="shape" result="effect1_innerShadow"/>
</filter>
<filter id="filter6_di" x="654" y="70" width="378.226" height="675" filterUnits="userSpaceOnUse" color-interpolation-filters="sRGB">
<feFlood flood-opacity="0" result="BackgroundImageFix"/>
<feColorMatrix in="SourceAlpha" type="matrix" values="0 0 0 0 0 0 0 0 0 0 0 0 0 0 0 0 0 0 127 0"/>
<feOffset dx="20" dy="20"/>
<feGaussianBlur stdDeviation="20"/>
<feColorMatrix type="matrix" values="0 0 0 0 0 0 0 0 0 0 0 0 0 0 0 0 0 0 0.1 0"/>
<feBlend mode="normal" in2="BackgroundImageFix" result="effect1_dropShadow"/>
<feBlend mode="normal" in="SourceGraphic" in2="effect1_dropShadow" result="shape"/>
<feColorMatrix in="SourceAlpha" type="matrix" values="0 0 0 0 0 0 0 0 0 0 0 0 0 0 0 0 0 0 127 0" result="hardAlpha"/>
<feOffset dy="4"/>
<feGaussianBlur stdDeviation="10"/>
<feComposite in2="hardAlpha" operator="arithmetic" k2="-1" k3="1"/>
<feColorMatrix type="matrix" values="0 0 0 0 0.75 0 0 0 0 0.75 0 0 0 0 0.75 0 0 0 0.25 0"/>
<feBlend mode="normal" in2="shape" result="effect2_innerShadow"/>
</filter>
<filter id="filter7_i" x="696.752" y="117.389" width="255.722" height="226.581" filterUnits="userSpaceOnUse" color-interpolation-filters="sRGB">
<feFlood flood-opacity="0" result="BackgroundImageFix"/>
<feBlend mode="normal" in="SourceGraphic" in2="BackgroundImageFix" result="shape"/>
<feColorMatrix in="SourceAlpha" type="matrix" values="0 0 0 0 0 0 0 0 0 0 0 0 0 0 0 0 0 0 127 0" result="hardAlpha"/>
<feOffset dx="3" dy="4"/>
<feGaussianBlur stdDeviation="7"/>
<feComposite in2="hardAlpha" operator="arithmetic" k2="-1" k3="1"/>
<feColorMatrix type="matrix" values="0 0 0 0 0.895833 0 0 0 0 0.895833 0 0 0 0 0.895833 0 0 0 0.5 0"/>
<feBlend mode="normal" in2="shape" result="effect1_innerShadow"/>
</filter>
<filter id="filter8_i" x="699.578" y="376.487" width="42.5602" height="44.5746" filterUnits="userSpaceOnUse" color-interpolation-filters="sRGB">
<feFlood flood-opacity="0" result="BackgroundImageFix"/>
<feBlend mode="normal" in="SourceGraphic" in2="BackgroundImageFix" result="shape"/>
<feColorMatrix in="SourceAlpha" type="matrix" values="0 0 0 0 0 0 0 0 0 0 0 0 0 0 0 0 0 0 127 0" result="hardAlpha"/>
<feOffset dx="3" dy="4"/>
<feGaussianBlur stdDeviation="7"/>
<feComposite in2="hardAlpha" operator="arithmetic" k2="-1" k3="1"/>
<feColorMatrix type="matrix" values="0 0 0 0 0.895833 0 0 0 0 0.895833 0 0 0 0 0.895833 0 0 0 0.5 0"/>
<feBlend mode="normal" in2="shape" result="effect1_innerShadow"/>
</filter>
<filter id="filter9_i" x="762.831" y="456.253" width="59.8044" height="66.6008" filterUnits="userSpaceOnUse" color-interpolation-filters="sRGB">
<feFlood flood-opacity="0" result="BackgroundImageFix"/>
<feBlend mode="normal" in="SourceGraphic" in2="BackgroundImageFix" result="shape"/>
<feColorMatrix in="SourceAlpha" type="matrix" values="0 0 0 0 0 0 0 0 0 0 0 0 0 0 0 0 0 0 127 0" result="hardAlpha"/>
<feOffset dx="3" dy="4"/>
<feGaussianBlur stdDeviation="7"/>
<feComposite in2="hardAlpha" operator="arithmetic" k2="-1" k3="1"/>
<feColorMatrix type="matrix" values="0 0 0 0 0.85 0 0 0 0 0.85 0 0 0 0 0.85 0 0 0 0.5 0"/>
<feBlend mode="normal" in2="shape" result="effect1_innerShadow"/>
</filter>
<filter id="filter10_i" x="762.831" y="542.039" width="59.8044" height="66.6008" filterUnits="userSpaceOnUse" color-interpolation-filters="sRGB">
<feFlood flood-opacity="0" result="BackgroundImageFix"/>
<feBlend mode="normal" in="SourceGraphic" in2="BackgroundImageFix" result="shape"/>
<feColorMatrix in="SourceAlpha" type="matrix" values="0 0 0 0 0 0 0 0 0 0 0 0 0 0 0 0 0 0 127 0" result="hardAlpha"/>
<feOffset dx="3" dy="4"/>
<feGaussianBlur stdDeviation="7"/>
<feComposite in2="hardAlpha" operator="arithmetic" k2="-1" k3="1"/>
<feColorMatrix type="matrix" values="0 0 0 0 0.85 0 0 0 0 0.85 0 0 0 0 0.85 0 0 0 0.5 0"/>
<feBlend mode="normal" in2="shape" result="effect1_innerShadow"/>
</filter>
<filter id="filter11_i" x="697.911" y="456.253" width="59.8044" height="66.6008" filterUnits="userSpaceOnUse" color-interpolation-filters="sRGB">
<feFlood flood-opacity="0" result="BackgroundImageFix"/>
<feBlend mode="normal" in="SourceGraphic" in2="BackgroundImageFix" result="shape"/>
<feColorMatrix in="SourceAlpha" type="matrix" values="0 0 0 0 0 0 0 0 0 0 0 0 0 0 0 0 0 0 127 0" result="hardAlpha"/>
<feOffset dx="3" dy="4"/>
<feGaussianBlur stdDeviation="7"/>
<feComposite in2="hardAlpha" operator="arithmetic" k2="-1" k3="1"/>
<feColorMatrix type="matrix" values="0 0 0 0 0.85 0 0 0 0 0.85 0 0 0 0 0.85 0 0 0 0.5 0"/>
<feBlend mode="normal" in2="shape" result="effect1_innerShadow"/>
</filter>
<filter id="filter12_i" x="697.911" y="542.039" width="59.8044" height="66.6008" filterUnits="userSpaceOnUse" color-interpolation-filters="sRGB">
<feFlood flood-opacity="0" result="BackgroundImageFix"/>
<feBlend mode="normal" in="SourceGraphic" in2="BackgroundImageFix" result="shape"/>
<feColorMatrix in="SourceAlpha" type="matrix" values="0 0 0 0 0 0 0 0 0 0 0 0 0 0 0 0 0 0 127 0" result="hardAlpha"/>
<feOffset dx="3" dy="4"/>
<feGaussianBlur stdDeviation="7"/>
<feComposite in2="hardAlpha" operator="arithmetic" k2="-1" k3="1"/>
<feColorMatrix type="matrix" values="0 0 0 0 0.85 0 0 0 0 0.85 0 0 0 0 0.85 0 0 0 0.5 0"/>
<feBlend mode="normal" in2="shape" result="effect1_innerShadow"/>
</filter>
<filter id="filter13_i" x="827.75" y="456.253" width="59.8044" height="66.6008" filterUnits="userSpaceOnUse" color-interpolation-filters="sRGB">
<feFlood flood-opacity="0" result="BackgroundImageFix"/>
<feBlend mode="normal" in="SourceGraphic" in2="BackgroundImageFix" result="shape"/>
<feColorMatrix in="SourceAlpha" type="matrix" values="0 0 0 0 0 0 0 0 0 0 0 0 0 0 0 0 0 0 127 0" result="hardAlpha"/>
<feOffset dx="3" dy="4"/>
<feGaussianBlur stdDeviation="7"/>
<feComposite in2="hardAlpha" operator="arithmetic" k2="-1" k3="1"/>
<feColorMatrix type="matrix" values="0 0 0 0 0.85 0 0 0 0 0.85 0 0 0 0 0.85 0 0 0 0.5 0"/>
<feBlend mode="normal" in2="shape" result="effect1_innerShadow"/>
</filter>
<filter id="filter14_i" x="827.75" y="542.039" width="59.8044" height="66.6008" filterUnits="userSpaceOnUse" color-interpolation-filters="sRGB">
<feFlood flood-opacity="0" result="BackgroundImageFix"/>
<feBlend mode="normal" in="SourceGraphic" in2="BackgroundImageFix" result="shape"/>
<feColorMatrix in="SourceAlpha" type="matrix" values="0 0 0 0 0 0 0 0 0 0 0 0 0 0 0 0 0 0 127 0" result="hardAlpha"/>
<feOffset dx="3" dy="4"/>
<feGaussianBlur stdDeviation="7"/>
<feComposite in2="hardAlpha" operator="arithmetic" k2="-1" k3="1"/>
<feColorMatrix type="matrix" values="0 0 0 0 0.85 0 0 0 0 0.85 0 0 0 0 0.85 0 0 0 0.5 0"/>
<feBlend mode="normal" in2="shape" result="effect1_innerShadow"/>
</filter>
<filter id="filter15_i" x="892.669" y="456.253" width="59.8044" height="66.6008" filterUnits="userSpaceOnUse" color-interpolation-filters="sRGB">
<feFlood flood-opacity="0" result="BackgroundImageFix"/>
<feBlend mode="normal" in="SourceGraphic" in2="BackgroundImageFix" result="shape"/>
<feColorMatrix in="SourceAlpha" type="matrix" values="0 0 0 0 0 0 0 0 0 0 0 0 0 0 0 0 0 0 127 0" result="hardAlpha"/>
<feOffset dx="3" dy="4"/>
<feGaussianBlur stdDeviation="7"/>
<feComposite in2="hardAlpha" operator="arithmetic" k2="-1" k3="1"/>
<feColorMatrix type="matrix" values="0 0 0 0 0.85 0 0 0 0 0.85 0 0 0 0 0.85 0 0 0 0.5 0"/>
<feBlend mode="normal" in2="shape" result="effect1_innerShadow"/>
</filter>
<filter id="filter16_i" x="892.669" y="542.039" width="59.8044" height="66.6008" filterUnits="userSpaceOnUse" color-interpolation-filters="sRGB">
<feFlood flood-opacity="0" result="BackgroundImageFix"/>
<feBlend mode="normal" in="SourceGraphic" in2="BackgroundImageFix" result="shape"/>
<feColorMatrix in="SourceAlpha" type="matrix" values="0 0 0 0 0 0 0 0 0 0 0 0 0 0 0 0 0 0 127 0" result="hardAlpha"/>
<feOffset dx="3" dy="4"/>
<feGaussianBlur stdDeviation="7"/>
<feComposite in2="hardAlpha" operator="arithmetic" k2="-1" k3="1"/>
<feColorMatrix type="matrix" values="0 0 0 0 0.85 0 0 0 0 0.85 0 0 0 0 0.85 0 0 0 0.5 0"/>
<feBlend mode="normal" in2="shape" result="effect1_innerShadow"/>
</filter>
<filter id="filter17_i" x="800.774" y="624.974" width="47.6786" height="48.6786" filterUnits="userSpaceOnUse" color-interpolation-filters="sRGB">
<feFlood flood-opacity="0" result="BackgroundImageFix"/>
<feBlend mode="normal" in="SourceGraphic" in2="BackgroundImageFix" result="shape"/>
<feColorMatrix in="SourceAlpha" type="matrix" values="0 0 0 0 0 0 0 0 0 0 0 0 0 0 0 0 0 0 127 0" result="hardAlpha"/>
<feOffset dx="3" dy="4"/>
<feGaussianBlur stdDeviation="7"/>
<feComposite in2="hardAlpha" operator="arithmetic" k2="-1" k3="1"/>
<feColorMatrix type="matrix" values="0 0 0 0 0.895833 0 0 0 0 0.895833 0 0 0 0 0.895833 0 0 0 0.5 0"/>
<feBlend mode="normal" in2="shape" result="effect1_innerShadow"/>
</filter>
<filter id="filter18_di" x="1020" y="157" width="312" height="237.07" filterUnits="userSpaceOnUse" color-interpolation-filters="sRGB">
<feFlood flood-opacity="0" result="BackgroundImageFix"/>
<feColorMatrix in="SourceAlpha" type="matrix" values="0 0 0 0 0 0 0 0 0 0 0 0 0 0 0 0 0 0 127 0"/>
<feOffset dx="10" dy="10"/>
<feGaussianBlur stdDeviation="15"/>
<feColorMatrix type="matrix" values="0 0 0 0 0.645833 0 0 0 0 0.645833 0 0 0 0 0.645833 0 0 0 0.25 0"/>
<feBlend mode="normal" in2="BackgroundImageFix" result="effect1_dropShadow"/>
<feBlend mode="normal" in="SourceGraphic" in2="effect1_dropShadow" result="shape"/>
<feColorMatrix in="SourceAlpha" type="matrix" values="0 0 0 0 0 0 0 0 0 0 0 0 0 0 0 0 0 0 127 0" result="hardAlpha"/>
<feOffset dy="4"/>
<feGaussianBlur stdDeviation="10"/>
<feComposite in2="hardAlpha" operator="arithmetic" k2="-1" k3="1"/>
<feColorMatrix type="matrix" values="0 0 0 0 0.75 0 0 0 0 0.75 0 0 0 0 0.75 0 0 0 0.25 0"/>
<feBlend mode="normal" in2="shape" result="effect2_innerShadow"/>
</filter>
<filter id="filter19_di" x="1186.6" y="189.233" width="127.367" height="127.367" filterUnits="userSpaceOnUse" color-interpolation-filters="sRGB">
<feFlood flood-opacity="0" result="BackgroundImageFix"/>
<feColorMatrix in="SourceAlpha" type="matrix" values="0 0 0 0 0 0 0 0 0 0 0 0 0 0 0 0 0 0 127 0"/>
<feOffset dx="20" dy="20"/>
<feGaussianBlur stdDeviation="20"/>
<feColorMatrix type="matrix" values="0 0 0 0 0 0 0 0 0 0 0 0 0 0 0 0 0 0 0.1 0"/>
<feBlend mode="normal" in2="BackgroundImageFix" result="effect1_dropShadow"/>
<feBlend mode="normal" in="SourceGraphic" in2="effect1_dropShadow" result="shape"/>
<feColorMatrix in="SourceAlpha" type="matrix" values="0 0 0 0 0 0 0 0 0 0 0 0 0 0 0 0 0 0 127 0" result="hardAlpha"/>
<feOffset dy="4"/>
<feGaussianBlur stdDeviation="10"/>
<feComposite in2="hardAlpha" operator="arithmetic" k2="-1" k3="1"/>
<feColorMatrix type="matrix" values="0 0 0 0 0.75 0 0 0 0 0.75 0 0 0 0 0.75 0 0 0 0.25 0"/>
<feBlend mode="normal" in2="shape" result="effect2_innerShadow"/>
</filter>
<filter id="filter20_di" x="1022" y="396" width="260" height="242.486" filterUnits="userSpaceOnUse" color-interpolation-filters="sRGB">
<feFlood flood-opacity="0" result="BackgroundImageFix"/>
<feColorMatrix in="SourceAlpha" type="matrix" values="0 0 0 0 0 0 0 0 0 0 0 0 0 0 0 0 0 0 127 0"/>
<feOffset dx="10" dy="10"/>
<feGaussianBlur stdDeviation="15"/>
<feColorMatrix type="matrix" values="0 0 0 0 0.645833 0 0 0 0 0.645833 0 0 0 0 0.645833 0 0 0 0.25 0"/>
<feBlend mode="normal" in2="BackgroundImageFix" result="effect1_dropShadow"/>
<feBlend mode="normal" in="SourceGraphic" in2="effect1_dropShadow" result="shape"/>
<feColorMatrix in="SourceAlpha" type="matrix" values="0 0 0 0 0 0 0 0 0 0 0 0 0 0 0 0 0 0 127 0" result="hardAlpha"/>
<feOffset dy="4"/>
<feGaussianBlur stdDeviation="10"/>
<feComposite in2="hardAlpha" operator="arithmetic" k2="-1" k3="1"/>
<feColorMatrix type="matrix" values="0 0 0 0 0.75 0 0 0 0 0.75 0 0 0 0 0.75 0 0 0 0.25 0"/>
<feBlend mode="normal" in2="shape" result="effect2_innerShadow"/>
</filter>
<filter id="filter21_di" x="592" y="731" width="678" height="368" filterUnits="userSpaceOnUse" color-interpolation-filters="sRGB">
<feFlood flood-opacity="0" result="BackgroundImageFix"/>
<feColorMatrix in="SourceAlpha" type="matrix" values="0 0 0 0 0 0 0 0 0 0 0 0 0 0 0 0 0 0 127 0"/>
<feOffset dx="20" dy="20"/>
<feGaussianBlur stdDeviation="20"/>
<feColorMatrix type="matrix" values="0 0 0 0 0 0 0 0 0 0 0 0 0 0 0 0 0 0 0.1 0"/>
<feBlend mode="normal" in2="BackgroundImageFix" result="effect1_dropShadow"/>
<feBlend mode="normal" in="SourceGraphic" in2="effect1_dropShadow" result="shape"/>
<feColorMatrix in="SourceAlpha" type="matrix" values="0 0 0 0 0 0 0 0 0 0 0 0 0 0 0 0 0 0 127 0" result="hardAlpha"/>
<feOffset dy="4"/>
<feGaussianBlur stdDeviation="10"/>
<feComposite in2="hardAlpha" operator="arithmetic" k2="-1" k3="1"/>
<feColorMatrix type="matrix" values="0 0 0 0 0.75 0 0 0 0 0.75 0 0 0 0 0.75 0 0 0 0.25 0"/>
<feBlend mode="normal" in2="shape" result="effect2_innerShadow"/>
</filter>
<filter id="filter22_i" x="622" y="798" width="581" height="41" filterUnits="userSpaceOnUse" color-interpolation-filters="sRGB">
<feFlood flood-opacity="0" result="BackgroundImageFix"/>
<feBlend mode="normal" in="SourceGraphic" in2="BackgroundImageFix" result="shape"/>
<feColorMatrix in="SourceAlpha" type="matrix" values="0 0 0 0 0 0 0 0 0 0 0 0 0 0 0 0 0 0 127 0" result="hardAlpha"/>
<feOffset dx="3" dy="4"/>
<feGaussianBlur stdDeviation="7"/>
<feComposite in2="hardAlpha" operator="arithmetic" k2="-1" k3="1"/>
<feColorMatrix type="matrix" values="0 0 0 0 0.895833 0 0 0 0 0.895833 0 0 0 0 0.895833 0 0 0 0.5 0"/>
<feBlend mode="normal" in2="shape" result="effect1_innerShadow"/>
</filter>
<filter id="filter23_di" x="1278" y="287" width="193" height="193" filterUnits="userSpaceOnUse" color-interpolation-filters="sRGB">
<feFlood flood-opacity="0" result="BackgroundImageFix"/>
<feColorMatrix in="SourceAlpha" type="matrix" values="0 0 0 0 0 0 0 0 0 0 0 0 0 0 0 0 0 0 127 0"/>
<feOffset dx="20" dy="20"/>
<feGaussianBlur stdDeviation="20"/>
<feColorMatrix type="matrix" values="0 0 0 0 0 0 0 0 0 0 0 0 0 0 0 0 0 0 0.1 0"/>
<feBlend mode="normal" in2="BackgroundImageFix" result="effect1_dropShadow"/>
<feBlend mode="normal" in="SourceGraphic" in2="effect1_dropShadow" result="shape"/>
<feColorMatrix in="SourceAlpha" type="matrix" values="0 0 0 0 0 0 0 0 0 0 0 0 0 0 0 0 0 0 127 0" result="hardAlpha"/>
<feOffset dy="4"/>
<feGaussianBlur stdDeviation="10"/>
<feComposite in2="hardAlpha" operator="arithmetic" k2="-1" k3="1"/>
<feColorMatrix type="matrix" values="0 0 0 0 0.75 0 0 0 0 0.75 0 0 0 0 0.75 0 0 0 0.25 0"/>
<feBlend mode="normal" in2="shape" result="effect2_innerShadow"/>
</filter>
<filter id="filter24_di" x="1121" y="626" width="171" height="171" filterUnits="userSpaceOnUse" color-interpolation-filters="sRGB">
<feFlood flood-opacity="0" result="BackgroundImageFix"/>
<feColorMatrix in="SourceAlpha" type="matrix" values="0 0 0 0 0 0 0 0 0 0 0 0 0 0 0 0 0 0 127 0"/>
<feOffset dx="20" dy="20"/>
<feGaussianBlur stdDeviation="20"/>
<feColorMatrix type="matrix" values="0 0 0 0 0 0 0 0 0 0 0 0 0 0 0 0 0 0 0.1 0"/>
<feBlend mode="normal" in2="BackgroundImageFix" result="effect1_dropShadow"/>
<feBlend mode="normal" in="SourceGraphic" in2="effect1_dropShadow" result="shape"/>
<feColorMatrix in="SourceAlpha" type="matrix" values="0 0 0 0 0 0 0 0 0 0 0 0 0 0 0 0 0 0 127 0" result="hardAlpha"/>
<feOffset dy="4"/>
<feGaussianBlur stdDeviation="10"/>
<feComposite in2="hardAlpha" operator="arithmetic" k2="-1" k3="1"/>
<feColorMatrix type="matrix" values="0 0 0 0 0.75 0 0 0 0 0.75 0 0 0 0 0.75 0 0 0 0.25 0"/>
<feBlend mode="normal" in2="shape" result="effect2_innerShadow"/>
</filter>
<filter id="filter25_di" x="418" y="453" width="198" height="198" filterUnits="userSpaceOnUse" color-interpolation-filters="sRGB">
<feFlood flood-opacity="0" result="BackgroundImageFix"/>
<feColorMatrix in="SourceAlpha" type="matrix" values="0 0 0 0 0 0 0 0 0 0 0 0 0 0 0 0 0 0 127 0"/>
<feOffset dx="20" dy="20"/>
<feGaussianBlur stdDeviation="20"/>
<feColorMatrix type="matrix" values="0 0 0 0 0 0 0 0 0 0 0 0 0 0 0 0 0 0 0.1 0"/>
<feBlend mode="normal" in2="BackgroundImageFix" result="effect1_dropShadow"/>
<feBlend mode="normal" in="SourceGraphic" in2="effect1_dropShadow" result="shape"/>
<feColorMatrix in="SourceAlpha" type="matrix" values="0 0 0 0 0 0 0 0 0 0 0 0 0 0 0 0 0 0 127 0" result="hardAlpha"/>
<feOffset dy="4"/>
<feGaussianBlur stdDeviation="10"/>
<feComposite in2="hardAlpha" operator="arithmetic" k2="-1" k3="1"/>
<feColorMatrix type="matrix" values="0 0 0 0 0.75 0 0 0 0 0.75 0 0 0 0 0.75 0 0 0 0.25 0"/>
<feBlend mode="normal" in2="shape" result="effect2_innerShadow"/>
</filter>
<filter id="filter26_d" x="787.746" y="183" width="74.2823" height="75.4415" filterUnits="userSpaceOnUse" color-interpolation-filters="sRGB">
<feFlood flood-opacity="0" result="BackgroundImageFix"/>
<feColorMatrix in="SourceAlpha" type="matrix" values="0 0 0 0 0 0 0 0 0 0 0 0 0 0 0 0 0 0 127 0"/>
<feOffset dy="3"/>
<feGaussianBlur stdDeviation="3.5"/>
<feColorMatrix type="matrix" values="0 0 0 0 0 0 0 0 0 0 0 0 0 0 0 0 0 0 0.15 0"/>
<feBlend mode="normal" in2="BackgroundImageFix" result="effect1_dropShadow"/>
<feBlend mode="normal" in="SourceGraphic" in2="effect1_dropShadow" result="shape"/>
</filter>
<linearGradient id="paint0_linear" x1="96" y1="637" x2="96.0017" y2="638.35" gradientUnits="userSpaceOnUse">
<stop stop-color="white"/>
<stop offset="1" stop-color="#F7F7F7"/>
</linearGradient>
<linearGradient id="paint1_linear" x1="96" y1="807" x2="96.0017" y2="808.35" gradientUnits="userSpaceOnUse">
<stop stop-color="white"/>
<stop offset="1" stop-color="#F7F7F7"/>
</linearGradient>
<linearGradient id="paint2_linear" x1="1166" y1="699" x2="1166" y2="700.35" gradientUnits="userSpaceOnUse">
<stop stop-color="white"/>
<stop offset="1" stop-color="#F7F7F7"/>
</linearGradient>
<linearGradient id="paint3_linear" x1="684" y1="100" x2="1052.64" y2="609.591" gradientUnits="userSpaceOnUse">
<stop stop-color="white"/>
<stop offset="1" stop-color="#F7F7F7"/>
</linearGradient>
<linearGradient id="paint4_linear" x1="696.752" y1="117.389" x2="781.35" y2="391.801" gradientUnits="userSpaceOnUse">
<stop stop-color="#F2EFEF"/>
<stop offset="1" stop-color="#F7F7F7"/>
</linearGradient>
<linearGradient id="paint5_linear" x1="1050" y1="344.07" x2="1177.78" y2="591.215" gradientUnits="userSpaceOnUse">
<stop stop-color="white"/>
<stop offset="1" stop-color="#F7F7F7"/>
</linearGradient>
<linearGradient id="paint6_linear" x1="1050" y1="344.07" x2="1177.78" y2="591.215" gradientUnits="userSpaceOnUse">
<stop stop-color="white"/>
<stop offset="1" stop-color="#F7F7F7"/>
</linearGradient>
<linearGradient id="paint7_linear" x1="1166" y1="246.933" x2="1166" y2="364.867" gradientUnits="userSpaceOnUse">
<stop stop-color="#A6A6A6" stop-opacity="0.3"/>
<stop offset="1" stop-color="white" stop-opacity="0"/>
</linearGradient>
<linearGradient id="paint8_linear" x1="1052" y1="588.487" x2="1133.91" y2="799.73" gradientUnits="userSpaceOnUse">
<stop stop-color="white"/>
<stop offset="1" stop-color="#F7F7F7"/>
</linearGradient>
<linearGradient id="paint9_linear" x1="622" y1="1029" x2="1119.04" y2="653.765" gradientUnits="userSpaceOnUse">
<stop stop-color="white"/>
<stop offset="1" stop-color="#F7F7F7"/>
</linearGradient>
<linearGradient id="paint10_linear" x1="1151" y1="656" x2="1180.89" y2="741.39" gradientUnits="userSpaceOnUse">
<stop stop-color="white"/>
<stop offset="1" stop-color="#F7F7F7"/>
</linearGradient>
<linearGradient id="paint11_linear" x1="448" y1="483" x2="489.256" y2="600.862" gradientUnits="userSpaceOnUse">
<stop stop-color="white"/>
<stop offset="1" stop-color="#F7F7F7"/>
</linearGradient>
</defs>
</svg>