<svg width="1155" height="945" viewBox="0 0 1155 945" fill="none" xmlns="http://www.w3.org/2000/svg">
<g filter="url(#filter0_d)">
<rect x="354.283" y="235.206" width="471.585" height="586.684" rx="29" transform="rotate(-15 354.283 235.206)" fill="white"/>
</g>
<path fill-rule="evenodd" clip-rule="evenodd" d="M438.45 301.973C450.45 298.758 457.577 286.45 454.371 274.484C451.164 262.517 438.838 255.422 426.839 258.638C414.839 261.853 407.711 274.16 410.918 286.127C414.124 298.094 426.451 305.188 438.45 301.973Z" fill="#C8D7E5"/>
<rect x="418.077" y="339.587" width="400.656" height="163.926" rx="5.4" transform="rotate(-15 418.077 339.587)" fill="#F3F9FE"/>
<path fill-rule="evenodd" clip-rule="evenodd" d="M628.047 355.806C628.681 358.174 627.266 360.611 624.885 361.249C622.504 361.887 620.06 360.484 619.425 358.116C618.79 355.747 620.206 353.31 622.587 352.672C624.968 352.034 627.412 353.437 628.047 355.806ZM623.602 372.623C623.946 371.844 624.935 371.471 625.814 371.78L632.184 374.02L639.297 361.474C639.726 360.718 640.603 360.521 641.253 361.038L658.254 374.554C659.549 375.584 658.926 376.878 656.849 377.435L620.482 387.179C618.401 387.737 617.274 386.937 617.956 385.395L623.602 372.623Z" fill="#C8D7E5"/>
<rect x="515.884" y="704.605" width="400.656" height="56.9429" rx="5.4" transform="rotate(-15 515.884 704.605)" fill="#F3F9FE"/>
<rect x="473.75" y="253.214" width="38.065" height="6.90217" rx="2.16" transform="rotate(-15 473.75 253.214)" fill="#C8D7E5"/>
<rect x="470.33" y="534.596" width="50.1766" height="13.8043" rx="4.32" transform="rotate(-15 470.33 534.596)" fill="#C8D7E5"/>
<rect x="479.263" y="567.931" width="141.859" height="13.8043" rx="4.32" transform="rotate(-15 479.263 567.931)" fill="#E9EFF5"/>
<rect x="631.101" y="527.246" width="141.859" height="13.8043" rx="4.32" transform="rotate(-15 631.101 527.246)" fill="#E9EFF5"/>
<rect x="784.792" y="486.065" width="84.3486" height="13.8043" rx="4.32" transform="rotate(-15 784.792 486.065)" fill="#E9EFF5"/>
<rect x="485.961" y="592.933" width="84.3486" height="13.8043" rx="4.32" transform="rotate(-15 485.961 592.933)" fill="#E9EFF5"/>
<rect x="492.66" y="617.934" width="59.4274" height="13.8043" rx="4.32" transform="rotate(-15 492.66 617.934)" fill="#E9EFF5"/>
<rect x="584.102" y="566.635" width="153.361" height="13.8043" rx="4.32" transform="rotate(-15 584.102 566.635)" fill="#E9EFF5"/>
<rect x="748.902" y="522.477" width="128.44" height="13.8043" rx="4.32" transform="rotate(-15 748.902 522.477)" fill="#E9EFF5"/>
<rect x="564.877" y="598.583" width="130.357" height="13.8043" rx="4.32" transform="rotate(-15 564.877 598.583)" fill="#E9EFF5"/>
<rect x="705.606" y="560.875" width="180.199" height="13.8043" rx="4.32" transform="rotate(-15 705.606 560.875)" fill="#E9EFF5"/>
<rect x="499.806" y="644.601" width="141.859" height="13.8043" rx="4.32" transform="rotate(-15 499.806 644.601)" fill="#E9EFF5"/>
<rect x="651.645" y="603.917" width="97.7677" height="13.8043" rx="4.32" transform="rotate(-15 651.645 603.917)" fill="#E9EFF5"/>
<rect x="762.746" y="574.148" width="128.44" height="13.8043" rx="4.32" transform="rotate(-15 762.746 574.148)" fill="#E9EFF5"/>
<rect x="528.826" y="518.922" width="83.0509" height="13.8043" rx="4.32" transform="rotate(-15 528.826 518.922)" fill="#C8D7E5"/>
<rect x="472.424" y="275.005" width="152.26" height="6.90217" rx="2.16" transform="rotate(-15 472.424 275.005)" fill="#C8D7E5"/>
<rect x="520.545" y="240.675" width="38.065" height="6.90217" rx="2.16" transform="rotate(-15 520.545 240.675)" fill="#C8D7E5"/>
<rect x="567.342" y="228.136" width="38.065" height="6.90217" rx="2.16" transform="rotate(-15 567.342 228.136)" fill="#C8D7E5"/>
<g filter="url(#filter1_d)">
<rect x="118.152" y="226.505" width="186.624" height="180.746" rx="29" transform="rotate(-15 118.152 226.505)" fill="white"/>
</g>
<path fill-rule="evenodd" clip-rule="evenodd" d="M164.672 263.305C171.309 261.527 175.256 254.734 173.487 248.134C171.719 241.534 164.905 237.625 158.267 239.404C151.63 241.182 147.683 247.974 149.452 254.575C151.22 261.175 158.035 265.083 164.672 263.305Z" fill="#C8D7E5"/>
<rect x="153.391" y="284.062" width="148.342" height="90.4118" rx="3.24" transform="rotate(-15 153.391 284.062)" fill="#F3F9FE"/>
<path fill-rule="evenodd" clip-rule="evenodd" d="M233.365 302.609C233.715 303.916 232.931 305.26 231.614 305.613C230.297 305.966 228.946 305.193 228.596 303.887C228.246 302.581 229.03 301.236 230.347 300.883C231.664 300.53 233.015 301.303 233.365 302.609ZM230.901 311.888C231.092 311.458 231.639 311.252 232.125 311.422L235.647 312.655L239.585 305.731C239.823 305.314 240.308 305.205 240.667 305.49L250.064 312.939C250.779 313.507 250.434 314.221 249.285 314.529L229.17 319.919C228.019 320.227 227.396 319.786 227.773 318.935L230.901 311.888Z" fill="#C8D7E5"/>
<rect x="184.212" y="236.393" width="21.055" height="3.80681" rx="1.296" transform="rotate(-15 184.212 236.393)" fill="#C8D7E5"/>
<rect x="183.47" y="248.414" width="84.2199" height="3.80681" rx="1.296" transform="rotate(-15 183.47 248.414)" fill="#C8D7E5"/>
<rect x="210.096" y="229.458" width="21.055" height="3.80681" rx="1.296" transform="rotate(-15 210.096 229.458)" fill="#C8D7E5"/>
<rect x="235.981" y="222.521" width="21.055" height="3.80681" rx="1.296" transform="rotate(-15 235.981 222.521)" fill="#C8D7E5"/>
<g filter="url(#filter2_d)">
<rect x="108.708" y="451.87" width="258.628" height="449.66" rx="29" transform="rotate(-15 108.708 451.87)" fill="white"/>
</g>
<path fill-rule="evenodd" clip-rule="evenodd" d="M173.224 503.043C182.422 500.578 187.886 491.145 185.429 481.973C182.971 472.801 173.523 467.364 164.325 469.829C155.127 472.293 149.662 481.726 152.12 490.898C154.578 500.07 164.026 505.507 173.224 503.043Z" fill="#C8D7E5"/>
<rect x="157.608" y="531.872" width="205.576" height="125.64" rx="4.5" transform="rotate(-15 157.608 531.872)" fill="#F3F9FE"/>
<path fill-rule="evenodd" clip-rule="evenodd" d="M268.477 557.717C268.963 559.532 267.878 561.4 266.053 561.889C264.228 562.378 262.354 561.303 261.868 559.487C261.381 557.672 262.467 555.804 264.292 555.315C266.117 554.826 267.99 555.901 268.477 557.717ZM265.069 570.605C265.333 570.008 266.091 569.722 266.765 569.959L271.648 571.676L277.1 562.06C277.429 561.48 278.101 561.33 278.6 561.726L291.631 572.085C292.624 572.874 292.146 573.866 290.554 574.293L262.677 581.762C261.082 582.19 260.218 581.577 260.741 580.395L265.069 570.605Z" fill="#C8D7E5"/>
<rect x="232.57" y="811.637" width="205.576" height="43.6435" rx="4.5" transform="rotate(-15 232.57 811.637)" fill="#F3F9FE"/>
<rect x="200.284" y="465.67" width="29.1786" height="5.29012" rx="1.8" transform="rotate(-15 200.284 465.67)" fill="#C8D7E5"/>
<rect x="197.655" y="681.336" width="38.4627" height="10.5802" rx="3.6" transform="rotate(-15 197.655 681.336)" fill="#C8D7E5"/>
<rect x="204.502" y="706.885" width="72.9464" height="10.5802" rx="3.6" transform="rotate(-15 204.502 706.885)" fill="#E9EFF5"/>
<rect x="282.65" y="685.947" width="72.9464" height="10.5802" rx="3.6" transform="rotate(-15 282.65 685.947)" fill="#E9EFF5"/>
<rect x="360.796" y="665.007" width="43.7678" height="10.5802" rx="3.6" transform="rotate(-15 360.796 665.007)" fill="#E9EFF5"/>
<rect x="209.636" y="726.047" width="43.7678" height="10.5802" rx="3.6" transform="rotate(-15 209.636 726.047)" fill="#E9EFF5"/>
<rect x="214.771" y="745.209" width="30.5049" height="10.5802" rx="3.6" transform="rotate(-15 214.771 745.209)" fill="#E9EFF5"/>
<rect x="259.599" y="712.66" width="79.5779" height="10.5802" rx="3.6" transform="rotate(-15 259.599 712.66)" fill="#E9EFF5"/>
<rect x="344.153" y="690.003" width="66.3149" height="10.5802" rx="3.6" transform="rotate(-15 344.153 690.003)" fill="#E9EFF5"/>
<rect x="251.923" y="735.254" width="66.3149" height="10.5802" rx="3.6" transform="rotate(-15 251.923 735.254)" fill="#E9EFF5"/>
<rect x="323.665" y="716.032" width="92.8409" height="10.5802" rx="3.6" transform="rotate(-15 323.665 716.032)" fill="#E9EFF5"/>
<rect x="220.247" y="765.648" width="72.9464" height="10.5802" rx="3.6" transform="rotate(-15 220.247 765.648)" fill="#E9EFF5"/>
<rect x="298.395" y="744.71" width="50.3993" height="10.5802" rx="3.6" transform="rotate(-15 298.395 744.71)" fill="#E9EFF5"/>
<rect x="354.763" y="729.606" width="66.3149" height="10.5802" rx="3.6" transform="rotate(-15 354.763 729.606)" fill="#E9EFF5"/>
<rect x="242.495" y="669.322" width="63.6623" height="10.5802" rx="3.6" transform="rotate(-15 242.495 669.322)" fill="#C8D7E5"/>
<rect x="199.267" y="482.372" width="116.714" height="5.29012" rx="1.8" transform="rotate(-15 199.267 482.372)" fill="#C8D7E5"/>
<rect x="236.155" y="456.058" width="29.1786" height="5.29012" rx="1.8" transform="rotate(-15 236.155 456.058)" fill="#C8D7E5"/>
<rect x="272.026" y="446.447" width="29.1786" height="5.29012" rx="1.8" transform="rotate(-15 272.026 446.447)" fill="#C8D7E5"/>
<defs>
<filter id="filter0_d" x="335.283" y="111.15" width="645.362" height="726.749" filterUnits="userSpaceOnUse" color-interpolation-filters="sRGB">
<feFlood flood-opacity="0" result="BackgroundImageFix"/>
<feColorMatrix in="SourceAlpha" type="matrix" values="0 0 0 0 0 0 0 0 0 0 0 0 0 0 0 0 0 0 127 0"/>
<feOffset dy="17"/>
<feGaussianBlur stdDeviation="9.5"/>
<feColorMatrix type="matrix" values="0 0 0 0 0.099375 0 0 0 0 0.105804 0 0 0 0 0.1125 0 0 0 0.08 0"/>
<feBlend mode="normal" in2="BackgroundImageFix" result="effect1_dropShadow"/>
<feBlend mode="normal" in="SourceGraphic" in2="effect1_dropShadow" result="shape"/>
</filter>
<filter id="filter1_d" x="99.1519" y="176.204" width="265.045" height="260.889" filterUnits="userSpaceOnUse" color-interpolation-filters="sRGB">
<feFlood flood-opacity="0" result="BackgroundImageFix"/>
<feColorMatrix in="SourceAlpha" type="matrix" values="0 0 0 0 0 0 0 0 0 0 0 0 0 0 0 0 0 0 127 0"/>
<feOffset dy="17"/>
<feGaussianBlur stdDeviation="9.5"/>
<feColorMatrix type="matrix" values="0 0 0 0 0.099375 0 0 0 0 0.105804 0 0 0 0 0.1125 0 0 0 0.08 0"/>
<feBlend mode="normal" in2="BackgroundImageFix" result="effect1_dropShadow"/>
<feBlend mode="normal" in="SourceGraphic" in2="effect1_dropShadow" result="shape"/>
</filter>
<filter id="filter2_d" x="89.7085" y="382.932" width="404.196" height="539.276" filterUnits="userSpaceOnUse" color-interpolation-filters="sRGB">
<feFlood flood-opacity="0" result="BackgroundImageFix"/>
<feColorMatrix in="SourceAlpha" type="matrix" values="0 0 0 0 0 0 0 0 0 0 0 0 0 0 0 0 0 0 127 0"/>
<feOffset dy="17"/>
<feGaussianBlur stdDeviation="9.5"/>
<feColorMatrix type="matrix" values="0 0 0 0 0.099375 0 0 0 0 0.105804 0 0 0 0 0.1125 0 0 0 0.08 0"/>
<feBlend mode="normal" in2="BackgroundImageFix" result="effect1_dropShadow"/>
<feBlend mode="normal" in="SourceGraphic" in2="effect1_dropShadow" result="shape"/>
</filter>
</defs>
</svg>
